<svg aria-hidden="true" style="position: absolute; width: 0; height: 0; overflow: hidden;" version="1.1" xmlns="http://www.w3.org/2000/svg" xmlns:xlink="http://www.w3.org/1999/xlink">
    <defs>
        <symbol id="icon-caret-arrow-artist-right" viewBox="0 0 32 32">
            <path d="M12.165 25.17l10.24-8.96-10.24-8.96v17.92z"></path>
        </symbol>
        <symbol id="icon-chevron-down-arrow" viewBox="0 0 32 32">
            <path d="M21.5 11.255l-5.495 5.495-5.495-5.495-1.81 1.81 7.305 7.305 7.305-7.305-1.81-1.81z"></path>
        </symbol>
        <symbol id="icon-chevron-up-arrow" viewBox="0 0 32 32">
            <path d="M8.394 19.064l1.886 1.886 5.726-5.726 5.726 5.726 1.886-1.886-7.612-7.612-7.612 7.612z"></path>
        </symbol>
        <symbol id="icon-error-circle" viewBox="0 0 32 32">
            <path d="M15.938 2.666c-7.317 0-13.27 5.982-13.27 13.334s5.982 13.334 13.334 13.334c7.352 0 13.333-5.982 13.333-13.334s-6.009-13.334-13.396-13.334zM16.001 26.666c-5.882 0-10.667-4.785-10.667-10.666s4.756-10.666 10.604-10.666c5.918 0 10.73 4.785 10.73 10.666s-4.786 10.666-10.666 10.666z"></path>
            <path d="M14.667 9.334h2.666v9.333h-2.666v-9.333zM14.667 20h2.666v2.666h-2.666v-2.666z"></path>
        </symbol>
        <symbol id="icon-facebook" viewBox="0 0 32 32">
            <path d="M28.805 16.511c0-7.113-5.731-12.879-12.8-12.879s-12.8 5.766-12.8 12.881c0 6.427 4.681 11.756 10.801 12.721v-8.998h-3.251v-3.724h3.251v-2.836c0-3.228 1.91-5.010 4.835-5.010 1.4 0 2.865 0.251 2.865 0.251v3.168h-1.613c-1.591 0-2.086 0.993-2.086 2.011v2.418h3.549l-0.567 3.722h-2.982v8.998c6.118-0.966 10.799-6.295 10.799-12.721z"></path>
        </symbol>
        <symbol id="icon-icon-close" viewBox="0 0 32 32">
            <path d="M22.843 22.372l-0.471 0.471c-0.121 0.121-0.288 0.195-0.472 0.195s-0.351-0.075-0.472-0.195l-5.423-5.422-5.423 5.422c-0.121 0.121-0.287 0.195-0.472 0.195s-0.351-0.075-0.472-0.195l-0.471-0.471c-0.121-0.121-0.195-0.288-0.195-0.472s0.075-0.351 0.195-0.472l5.422-5.423-5.422-5.423c-0.121-0.121-0.195-0.287-0.195-0.472s0.075-0.351 0.195-0.472l0.471-0.471c0.26-0.26 0.683-0.26 0.943 0l5.423 5.422 5.423-5.422c0.26-0.26 0.683-0.26 0.943 0l0.471 0.471c0.26 0.26 0.26 0.683 0 0.943l-5.422 5.423 5.422 5.423c0.26 0.26 0.26 0.683 0 0.943z"></path>
        </symbol>
        <symbol id="icon-instagram" viewBox="0 0 32 32">
            <path d="M21.125 4.911h-10.24c-3.535 0-6.4 2.865-6.4 6.4v0 10.24c0 3.535 2.865 6.4 6.4 6.4v0h10.24c3.535 0 6.4-2.865 6.4-6.4v0-10.24c0-3.535-2.865-6.4-6.4-6.4v0zM25.285 21.551c-0.007 2.295-1.865 4.153-4.159 4.16h-10.241c-2.295-0.007-4.153-1.865-4.16-4.159v-10.241c0.007-2.295 1.865-4.153 4.159-4.16h10.241c2.295 0.007 4.153 1.865 4.16 4.159v10.241zM22.085 11.631c0.707 0 1.28-0.573 1.28-1.28s-0.573-1.28-1.28-1.28v0c-0.707 0-1.28 0.573-1.28 1.28s0.573 1.28 1.28 1.28v0zM16.005 10.671c-3.181 0-5.76 2.579-5.76 5.76s2.579 5.76 5.76 5.76c3.181 0 5.76-2.579 5.76-5.76v0c0-0.004 0-0.008 0-0.013 0-3.174-2.573-5.747-5.747-5.747-0.005 0-0.009 0-0.014 0h0.001zM12.485 16.431c0 1.944 1.576 3.52 3.52 3.52s3.52-1.576 3.52-3.52v0c0-1.944-1.576-3.52-3.52-3.52s-3.52 1.576-3.52 3.52v0z"></path>
        </symbol>
        <symbol id="icon-left-arrow-alt" viewBox="0 0 32 32">
            <path d="M16.91 22.612l-5.495-5.495h12.27v-2.56h-12.27l5.495-5.495-1.81-1.81-8.585 8.585 8.585 8.585 1.81-1.81z"></path>
        </symbol>
        <symbol id="icon-menu-alt-right" viewBox="0 0 32 32">
            <path d="M5.335 8.003h21.341v2.668h-21.341v-2.668zM10.67 14.672h16.006v2.668h-16.006v-2.668zM17.34 21.341h9.337v2.668h-9.337v-2.668z"></path>
        </symbol>
        <symbol id="icon-right-arrow-header" viewBox="0 0 32 32">
            <path d="M7.732 28.654c0.172 0.091 0.376 0.145 0.593 0.145 0.273 0 0.525-0.085 0.733-0.23l-0.004 0.003 16.64-11.52c0.335-0.234 0.551-0.618 0.551-1.052s-0.216-0.818-0.547-1.049l-0.004-0.003-16.64-11.52c-0.204-0.144-0.457-0.23-0.731-0.23-0.705 0-1.277 0.572-1.277 1.277 0 0.002 0 0.003 0 0.005v-0 23.040c0 0 0 0 0 0 0 0.49 0.275 0.915 0.679 1.131l0.007 0.003zM9.605 6.924l13.111 9.076-13.111 9.076v-18.153z"></path>
        </symbol>
        <symbol id="icon-right-arrow-alt" viewBox="0 0 32 32">
            <path d="M15.101 22.612l1.81 1.809 8.585-8.585-8.585-8.584-1.81 1.81 5.495 5.495h-12.27v2.56h12.27l-5.495 5.495z"></path>
        </symbol>
        <symbol id="icon-search" viewBox="0 0 32 32">
            <path d="M13.338 24.009c2.474-0.001 4.75-0.848 6.554-2.269l-0.023 0.017 5.863 5.863 1.886-1.886-5.863-5.863c1.404-1.781 2.252-4.058 2.253-6.533v-0c0-5.883-4.787-10.67-10.67-10.67s-10.67 4.787-10.67 10.67 4.787 10.67 10.67 10.67zM13.338 5.335c4.414 0 8.003 3.589 8.003 8.003s-3.589 8.003-8.003 8.003-8.003-3.589-8.003-8.003 3.589-8.003 8.003-8.003z"></path>
        </symbol>
    </defs>
</svg>